<svg xmlns="http://www.w3.org/2000/svg" width="57.403" height="57.382" viewBox="0 0 57.403 57.382">
  <g id="Counter-Icon" transform="translate(107.412 -291.238)">
    <g id="Timer" transform="translate(-304.496 254.861)">
      <path id="Path_1202" data-name="Path 1202" d="M228.288,36.376a28.747,28.747,0,0,1-2.572,57.382,29.324,29.324,0,0,1-3.243-.182,28.759,28.759,0,0,1-16.982-48.89,2.677,2.677,0,1,1,3.781,3.791,23.4,23.4,0,0,0,13.8,39.773,23.123,23.123,0,0,0,18.269-5.792,23.4,23.4,0,0,0-12.881-40.68A29.631,29.631,0,0,0,228.288,36.376Z" fill="#fff" fill-rule="evenodd"/>
    </g>
    <g id="Timer1" transform="translate(-304.496 254.861)">
      <path id="Path_1203" data-name="Path 1203" d="M228.288,36.376a28.747,28.747,0,0,1-2.572,57.382,29.8,29.8,0,0,1-3.243-.182c-17.3-1.9-24.934-17.443-25.156-24.838l5.312-.668c.406,5.226,5.715,18.386,20.443,20.179a22.939,22.939,0,0,0,18.269-5.792,23.4,23.4,0,0,0-12.881-40.68A30.207,30.207,0,0,0,228.288,36.376Z" fill="#56f47a" fill-rule="evenodd"/>
    </g>
    <g id="Timer2" transform="matrix(0.675, -0.738, 0.738, 0.675, -277.568, 444.569)">
      <path id="Path_1204" data-name="Path 1204" d="M212.575,51.785c5.015,2.824,10.034,5.65,14.938,8.662a6.868,6.868,0,0,1,1.934,1.7,5.124,5.124,0,0,1-.553,6.554c-2.625,2.627-6.467,1.515-8.239-1.38-3.01-4.916-5.853-9.929-8.651-14.967C211.7,51.806,212.21,51.573,212.575,51.785Z" fill="#fff" fill-rule="evenodd"/>
    </g>
  </g>
</svg>
