<svg xmlns="http://www.w3.org/2000/svg" width="38.151" height="43.576" viewBox="0 0 38.151 43.576">
  <g id="Bulk-Export-Icon" transform="translate(-1306.347 -512.711)">
    <g id="Cloud-Icon" transform="translate(-197.426 -4319.051)">
      <path id="Path_2200" data-name="Path 2200" d="M1541.923,4866.6a8.74,8.74,0,0,1-8.743,8.743H1514.1a10.306,10.306,0,0,1-1.5-20.506,12.7,12.7,0,0,1,24.526,4.005A8.706,8.706,0,0,1,1541.923,4866.6Z" fill="#0082d5" fill-rule="evenodd"/>
    </g>
    <g id="Jump-Right-Icon" transform="translate(-1750.511 -765.552) rotate(-54.045)">
      <path id="Path_2201" data-name="Path 2201" d="M759.545,3254.751H761.6v6.158l10.264-9.238-10.264-9.238v6.158h-2.053c-6.6,0-12,6.21-12.317,12.317C750.236,3257.728,754.65,3254.751,759.545,3254.751Z" fill="#fff" stroke="#0082d5" stroke-linecap="round" stroke-linejoin="round" stroke-miterlimit="2" stroke-width="1.037" fill-rule="evenodd"/>
    </g>
  </g>
</svg>
