<svg xmlns="http://www.w3.org/2000/svg" width="71.462" height="74.863" viewBox="0 0 71.462 74.863">
  <g id="Layers1" transform="translate(-122.502 -6.806)">
    <path id="Path_333" data-name="Path 333" d="M124.157,26.995a3.11,3.11,0,0,1-1.654-2.9,3.147,3.147,0,0,1,1.667-2.937S143.049,11.8,152.8,7.888a14.891,14.891,0,0,1,11.246.041l28.268,13.258a3.113,3.113,0,0,1,1.654,2.9,3.149,3.149,0,0,1-1.671,2.94s-18.876,9.351-28.621,13.264a14.876,14.876,0,0,1-11.246-.041Zm68.152,14.336a3.4,3.4,0,0,1-.017,5.843s-18.876,9.351-28.621,13.268a14.907,14.907,0,0,1-11.246-.041L124.157,47.143a3.116,3.116,0,0,1-1.654-2.9,3.149,3.149,0,0,1,1.667-2.94s2.467-1.218,6.064-2.957l22.19,10.406a14.907,14.907,0,0,0,11.246.041c6.231-2.5,16.184-7.224,22.561-10.307Zm0,20.148a3.4,3.4,0,0,1-.017,5.839s-18.876,9.351-28.621,13.268a14.891,14.891,0,0,1-11.246-.041L124.157,67.288a3.4,3.4,0,0,1,.014-5.839s2.467-1.222,6.064-2.96l22.19,10.406a14.892,14.892,0,0,0,11.246.044c6.231-2.5,16.184-7.228,22.561-10.311Z" fill="#0082d5" fill-rule="evenodd"/>
  </g>
</svg>
