<svg xmlns="http://www.w3.org/2000/svg" width="38.5" height="38.5" viewBox="0 0 38.5 38.5">
  <path id="Path_347" data-name="Path 347" d="M1378.779,5983.532h-20.854a2.4,2.4,0,0,1-2.406-2.406v-3.208a2.406,2.406,0,1,1,4.813,0v.8h16.042v-28.875h-16.042v.8a2.406,2.406,0,1,1-4.812,0v-3.208a2.4,2.4,0,0,1,2.406-2.406h20.854a2.4,2.4,0,0,1,2.406,2.406v33.688A2.4,2.4,0,0,1,1378.779,5983.532Zm-15.24-19.266v.016h0a1.6,1.6,0,0,1-.473,1.171l-7.969,7.973a1.629,1.629,0,0,1-2.3-2.31l5.252-5.246h-13.762a1.6,1.6,0,1,1,0-3.192h13.762l-5.252-5.262a1.617,1.617,0,0,1,2.3-2.277l7.969,7.957A1.6,1.6,0,0,1,1363.539,5964.266Z" transform="translate(-1342.685 -5945.032)" fill="#fff" fill-rule="evenodd"/>
</svg>
