<svg xmlns="http://www.w3.org/2000/svg" width="84.512" height="73.948" viewBox="0 0 84.512 73.948">
  <g id="List-Icon" transform="translate(-644.402 -13440.878)">
    <path id="Path_335" data-name="Path 335" d="M723.631,13493.7h-52.82a5.282,5.282,0,0,1,0-10.564h52.82a5.282,5.282,0,0,1,0,10.564Zm0-21.129h-52.82a5.282,5.282,0,1,1,0-10.563h52.82a5.282,5.282,0,1,1,0,10.563Zm0-21.128h-52.82a5.282,5.282,0,1,1,0-10.563h52.82a5.282,5.282,0,1,1,0,10.563Zm-73.948,63.385a5.282,5.282,0,1,1,5.282-5.282A5.28,5.28,0,0,1,649.684,13514.826Zm0-21.128a5.282,5.282,0,1,1,5.282-5.282A5.28,5.28,0,0,1,649.684,13493.7Zm0-21.129a5.282,5.282,0,1,1,5.282-5.281A5.279,5.279,0,0,1,649.684,13472.569Zm0-21.128a5.282,5.282,0,1,1,5.282-5.281A5.279,5.279,0,0,1,649.684,13451.441Zm21.128,52.82h52.82a5.282,5.282,0,0,1,0,10.564h-52.82a5.282,5.282,0,0,1,0-10.564Z" fill="#0082d5" fill-rule="evenodd"/>
  </g>
</svg>
