<svg xmlns="http://www.w3.org/2000/svg" width="37.576" height="37.575" viewBox="0 0 37.576 37.575">
  <g id="Profile1" transform="translate(-286.515 -4596.758)">
    <path id="User-Icon" d="M317.834,4633.739c-2.846.47-6.192.595-12.531.595s-9.685-.125-12.531-.595c-3.985-.673-6.256-2.1-6.256-4.478,0-3.147,4.058-7.546,9.7-10.1,2.28,3.46,5.5,5.777,9.087,5.777s6.807-2.317,9.087-5.777c5.643,2.552,9.7,6.951,9.7,10.1C324.09,4631.641,321.818,4633.065,317.834,4633.739Zm-12.531-11.93c-5.2,0-9.394-6.9-9.394-14,0-6.607,3.922-11.054,9.394-11.054s9.394,4.447,9.394,11.054C314.7,4614.9,310.5,4621.809,305.3,4621.809Z" fill="#fff" fill-rule="evenodd"/>
  </g>
</svg>
