<svg xmlns="http://www.w3.org/2000/svg" width="35.286" height="38.495" viewBox="0 0 35.286 38.495">
  <path id="Path_997" data-name="Path 997" d="M1901.459,5074.834h-2.406v23.257a2.4,2.4,0,0,1-2.406,2.406H1875.8a2.4,2.4,0,0,1-2.406-2.406v-23.257h-2.406a2.406,2.406,0,1,1,0-4.812h7.218a8.02,8.02,0,1,1,16.039,0h7.218a2.406,2.406,0,1,1,0,4.812Zm-16.841,20.851h3.208v-19.247h-3.208Zm-6.416-19.247v19.247h3.208v-19.247Zm8.02-11.228a4.805,4.805,0,0,0-4.812,4.812h9.624A4.805,4.805,0,0,0,1886.222,5065.211Zm8.02,11.228h-3.208v19.247h3.208Z" transform="translate(-1868.578 -5062.003)" fill="#e40047" fill-rule="evenodd"/>
</svg>
