<svg xmlns="http://www.w3.org/2000/svg" width="38.485" height="38.498" viewBox="0 0 38.485 38.498">
  <path id="Path_985" data-name="Path 985" d="M504.32,4570.146H470.645a2.4,2.4,0,0,1-2.405-2.405v-33.675a2.4,2.4,0,0,1,2.405-2.405h26.417l-4.809,4.811h-19.2v28.864h28.864v-19.211l4.811-4.811v26.427A2.4,2.4,0,0,1,504.32,4570.146Zm.476-31.43-5.144-5.131.856-.866a3.639,3.639,0,1,1,5.144,5.147Zm-25.33,20.205,1.714-6.863.858-.866,5.144,5.147-.858.866Zm23.616-18.489L488.9,4554.64l-5.144-5.147,14.183-14.208Z" transform="translate(-468.24 -4531.648)" fill="#0082d5" fill-rule="evenodd"/>
</svg>
