<svg xmlns="http://www.w3.org/2000/svg" width="82.479" height="68.531" viewBox="0 0 82.479 68.531">
  <g id="Group_4523" data-name="Group 4523" transform="translate(-1045.528 -706.74)">
    <g id="Group_2063" data-name="Group 2063" transform="translate(39.654 -43.204)">
      <path id="Path_1879" data-name="Path 1879" d="M1033.821,797.494v12.057c-3.459-1.16-6.673-5.139-8.972-11.124A59.951,59.951,0,0,1,1033.821,797.494Zm13.184.933c-2.309,5.985-5.524,9.961-8.982,11.124V797.494A60.519,60.519,0,0,1,1047,798.427Zm-20.681,9.877a30.148,30.148,0,0,1-11.413-7,52.411,52.411,0,0,1,6.377-2.043A31.257,31.257,0,0,0,1026.324,808.3Zm30.609-7a30.081,30.081,0,0,1-11.414,7,31.023,31.023,0,0,0,5.035-9.039A52.282,52.282,0,0,1,1056.933,801.307Zm-36.764-5.53a54.532,54.532,0,0,0-7.831,2.684,29.826,29.826,0,0,1-6.465-16.613h12.159A57.436,57.436,0,0,0,1020.169,795.777Zm45.807-13.943a29.83,29.83,0,0,1-6.47,16.626,53.977,53.977,0,0,0-7.833-2.68,56.908,56.908,0,0,0,2.136-13.946Zm-44.312.013h12.156V793.83a62.9,62.9,0,0,0-10.132,1.134A55.031,55.031,0,0,1,1021.665,781.848Zm16.357,11.982v-12h12.166a54.926,54.926,0,0,1-2.034,13.127A62.678,62.678,0,0,0,1038.022,793.83Zm-32.148-16.188a29.855,29.855,0,0,1,6.465-16.614,53.919,53.919,0,0,0,7.831,2.685,57.367,57.367,0,0,0-2.136,13.929Zm27.947-11.982v11.982h-12.156a54.957,54.957,0,0,1,2.024-13.113A63.066,63.066,0,0,0,1033.821,765.66Zm16.368,11.982h-12.166V765.66a63.37,63.37,0,0,0,10.132-1.131A54.9,54.9,0,0,1,1050.189,777.642Zm3.622,0a56.918,56.918,0,0,0-2.136-13.927,53.749,53.749,0,0,0,7.833-2.687,29.743,29.743,0,0,1,6.459,16.614Zm-28.961-16.579c2.3-5.99,5.514-9.966,8.972-11.119V762A60.752,60.752,0,0,1,1024.849,761.063Zm13.173.936V749.944c3.459,1.153,6.673,5.131,8.982,11.119A60.9,60.9,0,0,1,1038.022,762Zm-23.111-3.816a30.1,30.1,0,0,1,11.413-6.994,31.171,31.171,0,0,0-5.035,9.036A52.411,52.411,0,0,1,1014.911,758.183Zm35.644,2.043a30.939,30.939,0,0,0-5.035-9.036,30.114,30.114,0,0,1,11.414,6.994A51.758,51.758,0,0,1,1050.555,760.226Z" fill="#0082d5" fill-rule="evenodd"/>
    </g>
    <g id="Group_2064" data-name="Group 2064" transform="translate(127.185 -73.252)">
      <path id="Path_1880" data-name="Path 1880" d="M984.749,827.811c.179-.009.359-.014.546-.014a6.426,6.426,0,0,1,2.4.605,10.387,10.387,0,0,1,2.6,1.38,78.594,78.594,0,0,1,10.524,8.378,78.616,78.616,0,0,1-10.524,8.377,10.389,10.389,0,0,1-2.6,1.38,6.426,6.426,0,0,1-2.4.605c-.188,0-.367,0-.546-.014-.188.009-.367.014-.546.014a6.426,6.426,0,0,1-2.407-.605,10.363,10.363,0,0,1-2.6-1.38,78.268,78.268,0,0,1-10.516-8.377,78.247,78.247,0,0,1,10.516-8.378,10.389,10.389,0,0,1,2.6-1.38,6.426,6.426,0,0,1,2.407-.605C984.382,827.8,984.561,827.8,984.749,827.811Zm0,3.569a6.781,6.781,0,1,1-6.786,6.781A6.783,6.783,0,0,1,984.749,831.38Zm0,3.39a3.39,3.39,0,1,1-3.389,3.39A3.391,3.391,0,0,1,984.749,834.77Z" fill="#0082d5" fill-rule="evenodd"/>
    </g>
  </g>
</svg>
