<svg xmlns="http://www.w3.org/2000/svg" width="40.026" height="38.5" viewBox="0 0 40.026 38.5">
  <path id="Path_311" data-name="Path 311" d="M534.682,87.65v-.274a2.316,2.316,0,1,1,4.633,0v4.4l3.773,3.36c1.322,1.179.956,2.134-.818,2.134h-2.954v18.251a1.6,1.6,0,0,1-1.617,1.616H510.054a1.614,1.614,0,0,1-1.616-1.616V97.271h-2.97c-1.775,0-2.141-.955-.817-2.134l18.025-16.059a1.838,1.838,0,0,1,2.385,0Zm-6.175,13.442v11.232h6.175V101.092Z" transform="translate(-503.855 -78.639)" fill="#fff" fill-rule="evenodd"/>
</svg>
