<svg xmlns="http://www.w3.org/2000/svg" width="45.108" height="44.178" viewBox="0 0 45.108 44.178">
  <g id="Planner" transform="translate(-5031.813 -381.878)">
    <path id="Path_895" data-name="Path 895" d="M5072.5,381.993a4.613,4.613,0,0,1,4.36,4.389c.13,11.7.01,23.4.01,35.1a4.6,4.6,0,0,1-4.37,4.5c-12.05.152-24.1,0-36.15,0a4.627,4.627,0,0,1-4.48-4.391c-.13-11.7,0-23.4,0-35.1a4.6,4.6,0,0,1,4.36-4.5Q5054.365,381.763,5072.5,381.993Zm-10.63,36.5a1.5,1.5,0,1,0-1.5-1.5A1.506,1.506,0,0,0,5061.87,418.49Zm-14,0a1.5,1.5,0,1,0-1.5-1.5A1.506,1.506,0,0,0,5047.87,418.49Zm7,0a1.5,1.5,0,1,0-1.5-1.5A1.506,1.506,0,0,0,5054.87,418.49Zm-14,0a1.5,1.5,0,1,0-1.5-1.5A1.5,1.5,0,0,0,5040.87,418.49Zm21-7a3.5,3.5,0,1,0-3.5-3.5A3.5,3.5,0,0,0,5061.87,411.49Zm-7-2a1.5,1.5,0,1,0-1.5-1.5A1.506,1.506,0,0,0,5054.87,409.49Zm-7,0a1.5,1.5,0,1,0-1.5-1.5A1.506,1.506,0,0,0,5047.87,409.49Zm-7,0a1.5,1.5,0,1,0-1.5-1.5A1.5,1.5,0,0,0,5040.87,409.49Zm28,0a1.5,1.5,0,1,0-1.5-1.5A1.506,1.506,0,0,0,5068.87,409.49Zm0-9a1.5,1.5,0,1,0-1.5-1.5A1.505,1.505,0,0,0,5068.87,400.49Zm-14,0a1.5,1.5,0,1,0-1.5-1.5A1.505,1.505,0,0,0,5054.87,400.49Zm7,0a1.5,1.5,0,1,0-1.5-1.5A1.505,1.505,0,0,0,5061.87,400.49Zm-14,0a1.5,1.5,0,1,0-1.5-1.5A1.505,1.505,0,0,0,5047.87,400.49Zm28.05-8c-.02-2.029-.03-4.057-.06-6.085a3.607,3.607,0,0,0-3.39-3.414c-12.04-.153-24.08,0-36.12,0a3.62,3.62,0,0,0-3.48,3.415q-.03,3.042-.05,6.085Z" fill="#0082d5" fill-rule="evenodd"/>
  </g>
</svg>
