<svg xmlns="http://www.w3.org/2000/svg" width="72.12" height="72.12" viewBox="0 0 72.12 72.12">
  <path id="Path_344" data-name="Path 344" d="M2582.78,11208.576h-39.065a4.505,4.505,0,0,1-4.507-4.508v-6.01a4.507,4.507,0,1,1,9.015,0v1.5h30.05v-54.09h-30.05v1.5a4.507,4.507,0,1,1-9.015,0v-6.01a4.505,4.505,0,0,1,4.507-4.508h39.065a4.5,4.5,0,0,1,4.508,4.508v63.1A4.5,4.5,0,0,1,2582.78,11208.576Zm-28.547-36.09v.029h0a3.007,3.007,0,0,1-.886,2.194l-14.929,14.935a3.051,3.051,0,0,1-4.3-4.327l9.838-9.826h-25.78a2.99,2.99,0,1,1,0-5.98h25.78l-9.838-9.856a3.03,3.03,0,0,1,4.3-4.267l14.929,14.9A3.005,3.005,0,0,1,2554.233,11172.486Z" transform="translate(-2515.168 -11136.456)" fill="#0082d5" fill-rule="evenodd"/>
</svg>
