<svg xmlns="http://www.w3.org/2000/svg" width="43.548" height="52.498" viewBox="0 0 43.548 52.498">
  <g id="Group_2427" data-name="Group 2427" transform="translate(-320.456 -373.356)">
    <path id="Path_2209" data-name="Path 2209" d="M341.968,425.854a19.031,19.031,0,0,1-2.461-.239c-.074-.166-.145-.339-.214-.517a17.967,17.967,0,0,1,2.675-.278Zm1.253,0V424.82a18.024,18.024,0,0,1,2.674.278c-.068.178-.14.351-.214.517A19.015,19.015,0,0,1,343.221,425.854Zm3.762-.5-.033.008,0-.015Zm-8.744.008-.033-.008.028-.007Zm10.614-.562c-.505-.187-1.028-.351-1.564-.491a17.123,17.123,0,0,0,.637-4.156h3.624a8.9,8.9,0,0,1-1.313,4.084Q349.565,424.546,348.853,424.8Zm-13.9-.563a8.873,8.873,0,0,1-1.312-4.08h3.623a17.087,17.087,0,0,0,.638,4.151q-.807.211-1.566.492Q335.624,424.545,334.952,424.237Zm3.392-4.08h3.624v3.571a18.767,18.767,0,0,0-3.02.338A16.466,16.466,0,0,1,338.344,420.157Zm4.877,3.571v-3.575h3.623a16.375,16.375,0,0,1-.6,3.912A18.67,18.67,0,0,0,343.221,423.728Zm7.2-10.531a10.06,10.06,0,0,1,1.5,10.151c3.8-2.31,6.257-6,6.257-10.151Zm-15.645,0h-7.753c0,4.154,2.459,7.841,6.258,10.151a10.055,10.055,0,0,1,1.495-10.151ZM333.64,418.9a8.887,8.887,0,0,1,1.926-4.951,16.065,16.065,0,0,0,2.335.8,17.064,17.064,0,0,0-.638,4.151Zm8.328-3.571V418.9h-3.624a16.441,16.441,0,0,1,.6-3.908A18.772,18.772,0,0,0,341.968,415.333Zm4.876,3.571h-3.623v-3.571A18.9,18.9,0,0,0,346.24,415,16.365,16.365,0,0,1,346.844,418.9Zm1.081,0a17.022,17.022,0,0,0-.637-4.15,16.233,16.233,0,0,0,2.335-.8,8.892,8.892,0,0,1,1.926,4.951Zm-5.957-5.707v1.045a18.206,18.206,0,0,1-2.675-.279c.1-.269.214-.525.329-.766Zm3.6,0c.116.241.225.5.329.766a18.206,18.206,0,0,1-2.675.279V413.2Zm-7.126,0q-.108.252-.207.517a15.766,15.766,0,0,1-1.663-.517Zm10.176,0a15.749,15.749,0,0,1-1.662.517q-.1-.266-.207-.517Zm-22.6-23.89h-5.56v17.957a4.491,4.491,0,0,0,4.49,4.489h34.568a4.491,4.491,0,0,0,4.49-4.489V389.307H358.6a16.294,16.294,0,0,0-32.58,0Zm27.13,4.263a1.156,1.156,0,1,1-1.156,1.156A1.156,1.156,0,0,1,353.146,393.57Zm3.35,0a1.156,1.156,0,1,1-1.156,1.156A1.157,1.157,0,0,1,356.5,393.57Zm3.35,0a1.156,1.156,0,1,1-1.156,1.156A1.157,1.157,0,0,1,359.846,393.57Zm-22.593-14.126a2.763,2.763,0,1,1-2.763,2.763A2.764,2.764,0,0,1,337.253,379.444Zm9.954-.035a2.764,2.764,0,1,1-2.764,2.764A2.765,2.765,0,0,1,347.207,379.409Z" fill="#0082d5" fill-rule="evenodd"/>
  </g>
</svg>
