<svg xmlns="http://www.w3.org/2000/svg" width="43.713" height="38.249" viewBox="0 0 43.713 38.249">
  <g id="Projects" transform="translate(-333.311 -6952.176)">
    <path id="Path_312" data-name="Path 312" d="M374.292,6979.5H346.971a2.732,2.732,0,1,1,0-5.464h27.321a2.732,2.732,0,1,1,0,5.464Zm0-10.928H346.971a2.732,2.732,0,1,1,0-5.464h27.321a2.732,2.732,0,1,1,0,5.464Zm0-10.928H346.971a2.732,2.732,0,0,1,0-5.464h27.321a2.732,2.732,0,0,1,0,5.464Zm-38.249,32.785a2.732,2.732,0,1,1,2.732-2.732A2.731,2.731,0,0,1,336.043,6990.425Zm0-10.928a2.732,2.732,0,1,1,2.732-2.732A2.731,2.731,0,0,1,336.043,6979.5Zm0-10.928a2.732,2.732,0,1,1,2.732-2.732A2.731,2.731,0,0,1,336.043,6968.568Zm0-10.928a2.732,2.732,0,1,1,2.732-2.732A2.731,2.731,0,0,1,336.043,6957.64Zm10.928,27.32h27.321a2.732,2.732,0,0,1,0,5.464H346.971a2.732,2.732,0,0,1,0-5.464Z" fill="#eee" fill-rule="evenodd"/>
  </g>
</svg>
