<svg xmlns="http://www.w3.org/2000/svg" width="37.12" height="37.125" viewBox="0 0 37.12 37.125">
  <g id="Group_378" data-name="Group 378" transform="translate(-1739.681 -322.11)">
    <path id="Path_346" data-name="Path 346" d="M1758.241,322.11a18.563,18.563,0,1,1-18.56,18.563A18.567,18.567,0,0,1,1758.241,322.11Zm2.37,25.267v4.171h-3.92v-4.171Zm-.67-2.369h-3.25v-2.253a3.022,3.022,0,0,1,.46-1.785,10.6,10.6,0,0,1,2.01-1.852q2.37-1.818,2.37-3.854a3.236,3.236,0,0,0-.93-2.436,3.3,3.3,0,0,0-2.41-.9q-3.435,0-4.05,4.755l-3.64-.651a8.129,8.129,0,0,1,2.63-5.581,8.022,8.022,0,0,1,5.5-2.027,7.543,7.543,0,0,1,5.27,1.894,6.1,6.1,0,0,1,2.08,4.713,6.378,6.378,0,0,1-.57,2.661,6.294,6.294,0,0,1-1.31,1.953c-.49.461-1.53,1.27-3.1,2.427a2.414,2.414,0,0,0-.86.943A6.912,6.912,0,0,0,1759.941,345.008Z" fill="#fff" fill-rule="evenodd"/>
  </g>
</svg>
