<svg xmlns="http://www.w3.org/2000/svg" width="72.109" height="72.119" viewBox="0 0 72.109 72.119">
  <path id="Path_343" data-name="Path 343" d="M3415.538,625.727a36.06,36.06,0,1,1-36.054,36.06A36.067,36.067,0,0,1,3415.538,625.727Zm4.6,49.084v8.1h-7.615v-8.1Zm-1.3-4.6h-6.313v-4.377a5.87,5.87,0,0,1,.894-3.468,20.61,20.61,0,0,1,3.9-3.6q4.6-3.532,4.6-7.487a6.286,6.286,0,0,0-1.807-4.732,6.4,6.4,0,0,0-4.681-1.75q-6.673,0-7.868,9.237l-7.071-1.265a15.79,15.79,0,0,1,5.109-10.842,15.583,15.583,0,0,1,10.684-3.938,14.653,14.653,0,0,1,10.238,3.679,11.851,11.851,0,0,1,4.041,9.156,12.384,12.384,0,0,1-1.107,5.169,12.222,12.222,0,0,1-2.545,3.794c-.952.9-2.972,2.467-6.022,4.715a4.691,4.691,0,0,0-1.671,1.832A13.434,13.434,0,0,0,3418.84,670.209Z" transform="translate(-3379.483 -625.727)" fill="#0082d5" fill-rule="evenodd"/>
</svg>
