<svg xmlns="http://www.w3.org/2000/svg" width="44.916" height="38.5" viewBox="0 0 44.916 38.5">
  <path id="Path_348" data-name="Path 348" d="M1198.3,4748.27a11.229,11.229,0,1,1,11.229-11.229A11.225,11.225,0,0,1,1198.3,4748.27Zm4.812-12.833H1199.9v-3.208a1.6,1.6,0,0,0-3.208,0v3.208h-3.208a1.6,1.6,0,1,0,0,3.208h3.208v3.209a1.6,1.6,0,0,0,3.208,0v-3.209h3.208a1.6,1.6,0,1,0,0-3.208Zm-19.153,0h-.1c-5.329,0-9.625-7.074-9.625-14.341,0-6.769,4.018-11.325,9.625-11.325s9.625,4.556,9.625,11.325a19.028,19.028,0,0,1-.162,2.406A14.448,14.448,0,0,0,1183.955,4735.437Zm-.1,3.208h.093a14.4,14.4,0,0,0,5.215,9.577c-1.526.032-3.248.048-5.308.048-6.5,0-9.923-.129-12.838-.61-4.084-.69-6.412-2.149-6.412-4.588,0-3.224,4.158-7.732,9.939-10.347C1176.884,4736.271,1180.184,4738.645,1183.859,4738.645Z" transform="translate(-1164.609 -4709.77)" fill="#fff" fill-rule="evenodd"/>
</svg>
