<svg xmlns="http://www.w3.org/2000/svg" width="35.213" height="36.889" viewBox="0 0 35.213 36.889">
  <g id="Plans" transform="translate(-60.363 -3.354)">
    <path id="Layers" d="M61.179,13.3a1.532,1.532,0,0,1-.815-1.43,1.551,1.551,0,0,1,.822-1.447s9.3-4.608,14.105-6.538a7.338,7.338,0,0,1,5.542.02L94.761,10.44a1.534,1.534,0,0,1,.815,1.43,1.552,1.552,0,0,1-.823,1.449s-9.3,4.608-14.1,6.536a7.33,7.33,0,0,1-5.542-.02Zm33.582,7.064a1.674,1.674,0,0,1-.008,2.879s-9.3,4.608-14.1,6.538a7.346,7.346,0,0,1-5.542-.02L61.179,23.23a1.536,1.536,0,0,1-.815-1.43,1.552,1.552,0,0,1,.822-1.449s1.216-.6,2.988-1.457l10.934,5.128a7.346,7.346,0,0,0,5.542.02c3.07-1.234,7.975-3.56,11.117-5.079Zm0,9.928a1.673,1.673,0,0,1-.008,2.877s-9.3,4.608-14.1,6.538a7.338,7.338,0,0,1-5.542-.02L61.179,33.157a1.674,1.674,0,0,1,.007-2.877s1.216-.6,2.988-1.459l10.934,5.128a7.338,7.338,0,0,0,5.542.022c3.07-1.234,7.975-3.561,11.117-5.081Z" fill="#fff" fill-rule="evenodd"/>
  </g>
</svg>
