<svg xmlns="http://www.w3.org/2000/svg" width="60.555" height="51.904" viewBox="0 0 60.555 51.904">
  <g id="Albums" transform="translate(-598.033 -342.525)">
    <path id="Path_2195" data-name="Path 2195" d="M655.5,356.265a3.093,3.093,0,0,1,3.087,3.1v31.959a3.1,3.1,0,0,1-3.087,3.1H601.125a3.1,3.1,0,0,1-3.092-3.1V359.366a3.1,3.1,0,0,1,3.092-3.1Zm-14.658,20.016H630.19v10.653a1.879,1.879,0,1,1-3.759,0V376.281H615.779a1.879,1.879,0,0,1,0-3.759h10.653V361.871a1.879,1.879,0,1,1,3.759,0v10.651h10.653a1.879,1.879,0,1,1,0,3.759ZM605.01,352.4a1.68,1.68,0,0,1,0-3.361h46.737a1.68,1.68,0,0,1,0,3.361Zm4.044-6.508a1.519,1.519,0,0,1-1.516-1.521v-.32a1.519,1.519,0,0,1,1.516-1.521h37.937a1.519,1.519,0,0,1,1.515,1.521v.32a1.519,1.519,0,0,1-1.515,1.521Z" fill="#0082d5" fill-rule="evenodd"/>
  </g>
</svg>
