<svg xmlns="http://www.w3.org/2000/svg" width="36" height="39" viewBox="0 0 36 39">
  <g id="Alarm--small-" transform="translate(-858.15 -650.678)">
    <path id="Path_2197" data-name="Path 2197" d="M880.5,685.177a4.513,4.513,0,0,1-4.5,4.5,4.42,4.42,0,0,1-4.5-4.5Zm12.75-4.35c-.3-.15-.45-.3-.75-.3a7.1,7.1,0,0,1-3-3.3,10.294,10.294,0,0,1-1.5-5.55v-6a11.99,11.99,0,0,0-10.5-11.85v-1.65a1.5,1.5,0,0,0-3,0v1.65a12.1,12.1,0,0,0-10.5,11.85v6a11.6,11.6,0,0,1-1.2,5.1,9.788,9.788,0,0,1-2.4,3.15,7.946,7.946,0,0,1-1.5.9,1.188,1.188,0,0,0-.75,1.2,1.417,1.417,0,0,0,1.5,1.5h33a1.417,1.417,0,0,0,1.5-1.5A3.145,3.145,0,0,0,893.25,680.828Z" fill="#0082d5" fill-rule="evenodd"/>
  </g>
</svg>
