<svg xmlns="http://www.w3.org/2000/svg" width="37.6" height="52.381" viewBox="0 0 37.6 52.381">
  <g id="Group_1090" data-name="Group 1090" transform="translate(-1705.16 -787.682)">
    <path id="Path_986" data-name="Path 986" d="M1709.97,801.453a14.063,14.063,0,0,1,28.12,0h4.67v15.5a3.88,3.88,0,0,1-3.88,3.876h-4.76a12.3,12.3,0,1,1-20.31,0h-4.77a3.88,3.88,0,0,1-3.88-3.876v-15.5Zm20.16,26.3a1.532,1.532,0,0,0-1.53-1.527h-3.11v-3.113a1.53,1.53,0,0,0-3.06,0v3.113h-3.11a1.527,1.527,0,0,0,0,3.054h3.11V832.4a1.53,1.53,0,0,0,3.06,0v-3.113h3.11A1.531,1.531,0,0,0,1730.13,827.755Zm3.26-22.622a1,1,0,1,1-1,1A.992.992,0,0,1,1733.39,805.133Zm2.89,0a1,1,0,1,1-1,1A1,1,0,0,1,1736.28,805.133Zm2.89,0a1,1,0,1,1-1,1A1,1,0,0,1,1739.17,805.133Zm-19.5-12.2a2.386,2.386,0,1,1-2.39,2.386A2.386,2.386,0,0,1,1719.67,792.938Zm8.59-.03a2.386,2.386,0,1,1-2.39,2.386A2.38,2.38,0,0,1,1728.26,792.908Z" fill="#0082d5" fill-rule="evenodd"/>
  </g>
</svg>
