<svg xmlns="http://www.w3.org/2000/svg" width="81.395" height="69.767" viewBox="0 0 81.395 69.767">
  <g id="Sign-up-icon" transform="translate(-2110.446 -8534.806)">
    <path id="Path_345" data-name="Path 345" d="M2171.492,8604.572a20.349,20.349,0,1,1,20.349-20.349A20.341,20.341,0,0,1,2171.492,8604.572Zm8.721-23.256H2174.4V8575.5a2.907,2.907,0,1,0-5.814,0v5.813h-5.814a2.907,2.907,0,1,0,0,5.813h5.814v5.814a2.907,2.907,0,1,0,5.814,0v-5.814h5.814a2.907,2.907,0,1,0,0-5.813Zm-34.709,0h-.174c-9.657,0-17.442-12.819-17.442-25.988,0-12.267,7.282-20.522,17.442-20.522s17.442,8.256,17.442,20.522a34.5,34.5,0,0,1-.294,4.36A26.183,26.183,0,0,0,2145.5,8581.316Zm-.174,5.813h.168a26.092,26.092,0,0,0,9.451,17.354c-2.765.059-5.887.088-9.619.088-11.77,0-17.982-.233-23.264-1.1-7.4-1.251-11.619-3.9-11.619-8.314,0-5.843,7.535-14.012,18.011-18.749C2132.69,8582.828,2138.669,8587.13,2145.329,8587.13Z" fill="#0082d5" fill-rule="evenodd"/>
  </g>
</svg>
