<svg xmlns="http://www.w3.org/2000/svg" width="32.217" height="39" viewBox="0 0 32.217 39">
  <path id="Path_2198" data-name="Path 2198" d="M82.175,89.986h7.261a7.2,7.2,0,0,1,7.217,7.191V114.9a7.2,7.2,0,0,1-7.217,7.191H71.653a7.205,7.205,0,0,1-7.218-7.191V97.178a7.205,7.205,0,0,1,7.218-7.191h7.261V84.654a1.572,1.572,0,0,1,1.574-1.567H80.6a1.571,1.571,0,0,1,1.574,1.567Zm-.1,0H79.009v0h-.095v19.432l-4.261-3.876a1.6,1.6,0,0,0-2.216.068,1.5,1.5,0,0,0,.07,2.159l6.937,6.311a1.6,1.6,0,0,0,1.058.407l.046,0,.054,0a1.6,1.6,0,0,0,1.045-.407l6.937-6.311a1.5,1.5,0,0,0,.07-2.159,1.6,1.6,0,0,0-2.218-.068l-4.259,3.876V89.992h-.1Z" transform="translate(-64.435 -83.087)" fill="#0082d5" fill-rule="evenodd"/>
</svg>
