<svg xmlns="http://www.w3.org/2000/svg" width="37.594" height="52.381" viewBox="0 0 37.594 52.381">
  <g id="Group_362" data-name="Group 362" transform="translate(-627.135 -373.395)">
    <path id="Path_330" data-name="Path 330" d="M631.935,387.165a14.066,14.066,0,0,1,28.126,0h4.668v15.5a3.877,3.877,0,0,1-3.875,3.876h-4.769a12.3,12.3,0,1,1-20.3,0h-4.769a3.878,3.878,0,0,1-3.876-3.876v-15.5Zm20.164,26.3a1.528,1.528,0,0,0-1.527-1.527h-3.113v-3.113a1.527,1.527,0,0,0-3.054,0v3.114h-3.113a1.527,1.527,0,0,0,0,3.054h3.113v3.114a1.527,1.527,0,0,0,3.054,0v-3.114h3.113A1.527,1.527,0,0,0,652.1,413.468Zm3.257-22.622a1,1,0,1,1-1,1A1,1,0,0,1,655.356,390.846Zm2.892,0a1,1,0,1,1-1,1A1,1,0,0,1,658.248,390.846Zm2.892,0a1,1,0,1,1-1,1A1,1,0,0,1,661.14,390.846Zm-19.5-12.2a2.385,2.385,0,1,1-2.386,2.385A2.385,2.385,0,0,1,641.636,378.651Zm8.592-.03a2.385,2.385,0,1,1-2.385,2.386A2.387,2.387,0,0,1,650.228,378.621Z" fill="#fff" fill-rule="evenodd"/>
  </g>
</svg>
