<svg xmlns="http://www.w3.org/2000/svg" width="46.193" height="38.494" viewBox="0 0 46.193 38.494">
  <g id="Group_1094" data-name="Group 1094" transform="translate(-1401.196 -5443.108)">
    <path id="Path_991" data-name="Path 991" d="M1447.39,5454.657l-13.473,11.548v-7.7h-1.925c-6.121,0-11.637,3.715-15.4,7.7.4-7.641,7.15-15.4,15.4-15.4h1.925v-7.7Zm-30.176,0H1406.97v21.172h28.871v-5.5l5.774-4.946v13.338a2.885,2.885,0,0,1-2.887,2.887h-34.645a2.885,2.885,0,0,1-2.887-2.887V5451.77a2.886,2.886,0,0,1,2.887-2.887h19.041A17.3,17.3,0,0,0,1417.214,5454.657Z" fill="#0082d5" fill-rule="evenodd"/>
  </g>
</svg>
