<svg xmlns="http://www.w3.org/2000/svg" width="40.098" height="38.494" viewBox="0 0 40.098 38.494">
  <g id="Duplicate" transform="translate(-504.867 -157.184)">
    <path id="Path_998" data-name="Path 998" d="M534.221,165.969a2.034,2.034,0,0,1,1.7,2.25v25.207a2.036,2.036,0,0,1-1.7,2.252H506.568a2.036,2.036,0,0,1-1.7-2.252V168.219a2.034,2.034,0,0,1,1.7-2.25ZM515.2,159.544a2.349,2.349,0,0,1,2.335-2.359h25.09a2.348,2.348,0,0,1,2.337,2.359v26.405a2.345,2.345,0,0,1-2.337,2.358H539.8V164.386a2.346,2.346,0,0,0-2.337-2.356H515.2Z" fill="#0082d5" fill-rule="evenodd"/>
  </g>
</svg>
