<svg xmlns="http://www.w3.org/2000/svg" width="72.646" height="72.646" viewBox="0 0 72.646 72.646">
  <g id="User-Icon1" transform="translate(-553.928 -8887.069)">
    <path id="Path_332" data-name="Path 332" d="M614.479,8958.565c-5.5.907-11.972,1.149-24.228,1.149s-18.725-.242-24.227-1.149c-7.7-1.3-12.1-4.057-12.1-8.657,0-6.085,7.846-14.59,18.755-19.523,4.407,6.689,10.634,11.169,17.568,11.169s13.161-4.479,17.568-11.169c10.909,4.934,18.755,13.438,18.755,19.523C626.575,8954.509,622.183,8957.263,614.479,8958.565ZM590.251,8935.5c-10.055,0-18.162-13.348-18.162-27.06,0-12.773,7.582-21.37,18.162-21.37s18.162,8.6,18.162,21.37C608.413,8922.151,600.307,8935.5,590.251,8935.5Z" fill="#0082d5" fill-rule="evenodd"/>
  </g>
</svg>
