<svg xmlns="http://www.w3.org/2000/svg" width="77.383" height="74.432" viewBox="0 0 77.383 74.432">
  <g id="Home3" transform="translate(-974.121 -152.035)">
    <path id="Path_331" data-name="Path 331" d="M1033.719,169.457v-.53a4.478,4.478,0,1,1,8.956,0v8.51l7.293,6.5c2.556,2.28,1.849,4.126-1.582,4.126h-5.711v35.285a3.1,3.1,0,0,1-3.127,3.124H986.1a3.121,3.121,0,0,1-3.124-3.124V188.058h-5.742c-3.431,0-4.138-1.846-1.579-4.126l34.848-31.048a3.553,3.553,0,0,1,4.61,0Zm-11.938,25.988v21.716h11.938V195.445Z" fill="#0082d5" fill-rule="evenodd"/>
  </g>
</svg>
