<svg xmlns="http://www.w3.org/2000/svg" width="48.956" height="51.904" viewBox="0 0 48.956 51.904">
  <g id="File-Icon" transform="translate(-189.517 -373.098)">
    <path id="Path_369" data-name="Path 369" d="M218.352,414.941H194.747a5.231,5.231,0,0,1-5.23-5.231V378.328a5.231,5.231,0,0,1,5.23-5.23h15.691v10.461a5.23,5.23,0,0,0,5.231,5.23h10.46v16.353a10.062,10.062,0,1,1-7.777,9.8Zm5.262-.759a1.25,1.25,0,0,0,1,2h2.547v2.548a1.249,1.249,0,0,0,2.5,0v-2.548h2.548a1.249,1.249,0,0,0,0-2.5h-2.548v-2.547a1.249,1.249,0,0,0-2.5,0v2.548h-2.548a1.23,1.23,0,0,0-.381.059A5.232,5.232,0,0,1,223.614,414.182Zm-15.577-24.491h-1.554a6.2,6.2,0,0,1-.8,1.9l1.107,1.107a.688.688,0,0,1,0,.975l-.976.976a.689.689,0,0,1-.976,0l-1.1-1.1a6.1,6.1,0,0,1-1.91.81V395.9a.69.69,0,0,1-.69.69h-1.38a.69.69,0,0,1-.69-.69v-1.539a6.112,6.112,0,0,1-1.911-.81l-1.1,1.1a.689.689,0,0,1-.976,0l-.975-.976a.688.688,0,0,1,0-.975l1.107-1.107a6.2,6.2,0,0,1-.8-1.9h-1.554a.69.69,0,0,1-.69-.69v-1.38a.69.69,0,0,1,.69-.69h1.554a6.18,6.18,0,0,1,.8-1.9L194.1,383.92a.689.689,0,0,1,0-.976l.975-.976a.689.689,0,0,1,.976,0l1.1,1.1a6.109,6.109,0,0,1,1.911-.809v-1.539a.69.69,0,0,1,.69-.691h1.38a.69.69,0,0,1,.69.691v1.539a6.093,6.093,0,0,1,1.91.809l1.1-1.1a.689.689,0,0,1,.976,0l.976.976a.689.689,0,0,1,0,.976l-1.107,1.107a6.18,6.18,0,0,1,.8,1.9h1.554a.69.69,0,0,1,.69.69V389A.69.69,0,0,1,208.037,389.691Zm-7.591-5.52a4.14,4.14,0,1,0,4.14,4.14A4.139,4.139,0,0,0,200.446,384.171Zm0,6.21a2.07,2.07,0,1,1,2.07-2.07A2.07,2.07,0,0,1,200.446,390.381ZM213.925,373.1l12.2,12.2h-12.2Z" fill="#0082d5" fill-rule="evenodd"/>
  </g>
</svg>
