<svg xmlns="http://www.w3.org/2000/svg" width="52.242" height="52.242" viewBox="0 0 52.242 52.242">
  <g id="Group_1354" data-name="Group 1354" transform="translate(-118.58 -97.788)">
    <path id="Path_1231" data-name="Path 1231" d="M144.7,97.788a26.121,26.121,0,1,1-26.121,26.121A26.133,26.133,0,0,1,144.7,97.788ZM134.579,132.4a1.633,1.633,0,1,1,1.633-1.633A1.633,1.633,0,0,1,134.579,132.4Zm4.245-1.469a1.141,1.141,0,0,1,1.143-1.143h15.345a1.143,1.143,0,1,1,0,2.286H139.966A1.14,1.14,0,0,1,138.823,130.929Zm-4.245-5.061a1.633,1.633,0,1,1,1.633-1.633A1.633,1.633,0,0,1,134.579,125.868Zm4.245-1.8a1.141,1.141,0,0,1,1.143-1.143h15.345a1.143,1.143,0,1,1,0,2.286H139.966A1.14,1.14,0,0,1,138.823,124.072Zm-4.245-5.387a1.633,1.633,0,1,1,1.633-1.633A1.633,1.633,0,0,1,134.579,118.684Zm4.245-1.469a1.141,1.141,0,0,1,1.143-1.143h15.345a1.143,1.143,0,1,1,0,2.286H139.966A1.14,1.14,0,0,1,138.823,117.215Z" fill="#0082d5" fill-rule="evenodd"/>
  </g>
</svg>
