<svg xmlns="http://www.w3.org/2000/svg" width="152.788" height="138.534" viewBox="0 0 152.788 138.534">
  <g id="_-" transform="translate(-3642.074 -3037.536)">
    <path id="Path_384" data-name="Path 384" d="M3791.042,3163.524c-1.273-.7-1.91-1.394-3.183-1.394-5.73-2.788-10.186-9.758-12.732-15.334-4.457-7.667-6.366-16.728-6.366-25.788v-27.88c0-28.576-19.735-51.577-44.563-55.062a38.454,38.454,0,0,0-12.732,0c-24.828,3.485-44.563,27.183-44.563,55.062v27.88a58.128,58.128,0,0,1-5.093,23.7,45.285,45.285,0,0,1-10.186,14.637c-1.91,2.091-4.456,2.788-6.366,4.182-1.91.7-3.183,2.788-3.183,5.576,0,4.182,2.547,6.97,6.366,6.97H3788.5c3.82,0,6.366-2.788,6.366-6.97C3794.225,3167.706,3792.952,3164.918,3791.042,3163.524Z" fill="#f2f7fb" fill-rule="evenodd"/>
  </g>
</svg>
