<svg xmlns="http://www.w3.org/2000/svg" width="31.032" height="23.274" viewBox="0 0 31.032 23.274">
  <g id="Upload-Icon" transform="translate(-1364.125 -3942.387)">
    <path id="Path_889" data-name="Path 889" d="M1388.046,3965.662h-7.137v-7.176l1.59,1.59a1.334,1.334,0,0,0,1.9,0,1.35,1.35,0,0,0,0-1.914l-3.75-3.762a1.341,1.341,0,0,0-1.021-.388,1.323,1.323,0,0,0-1.035.388l-3.75,3.762a1.35,1.35,0,0,0,0,1.914,1.334,1.334,0,0,0,1.9,0l1.59-1.59v7.176h-5.806a8.384,8.384,0,0,1-1.228-16.68,10.331,10.331,0,0,1,19.951,3.259,7.088,7.088,0,0,1-3.207,13.421Z" fill="#0082d5" fill-rule="evenodd"/>
  </g>
</svg>
